<?xml version="1.0" standalone="yes"?>
<svg xmlns="http://www.w3.org/2000/svg" width="512" height="512">
  <path style="fill:none; stroke:none;" d="M0 0L0 412L1 412C4.37286 370.705 44.0308 341.075 83 338C80.4132 325.501 76.2068 312.964 77.0895 300C80.5289 249.491 119.902 201.286 173 199C179.97 161.592 192.413 128.927 224 104.899C293.844 51.7704 399.511 82.4841 427.329 167C438.367 200.534 435.726 237.663 419.11 269C413.548 279.491 406.338 289.557 397.996 298C391.633 304.44 383.682 309.047 388.249 318.852C390.77 324.264 406.605 320.991 412 321C430.799 321.03 450.135 328.597 465 339.899C519.121 381.046 514.922 468.701 453 500.742C443.257 505.783 432.137 510.763 421 511L421 512L512 512L512 212L511 212C503.926 220.924 479.67 217.871 469 216.941C464.954 216.589 461.145 214.143 460.079 209.999C458.356 203.304 465.432 199.365 471 199.043C484.414 198.269 500.471 196.652 512 204L512 0L308 0C315.253 11.3802 313.335 25.8277 312.985 39C312.839 44.5244 310.19 52.034 303.424 52.034C296.787 52.034 294.285 44.3625 294.039 39C293.443 26.0002 291.886 11.2607 299 0L0 0z"/>
  <path style="fill:#fdd121; stroke:none;" d="M299.058 1.02777C295.434 3.00018 294.378 7.18671 294.09 11C293.337 20.9991 291.934 35.3397 294.724 44.9992C296.357 50.6559 302.443 54.2807 307.945 51.0471C316.487 46.0272 314.921 15.6351 312.427 7.00076C310.806 1.38745 304.481 -1.92407 299.058 1.02777M144.015 43.7431C138.574 45.8594 136.754 52.1518 139.742 57C147.05 68.8574 161.092 79.2265 171 88.9962C174.726 92.6698 179.23 97.4164 184.995 95.2538C190.901 93.0388 192.411 86.1038 189.258 81C181.969 69.2039 167.951 58.6544 158 49.0154C154.2 45.3343 149.648 41.5525 144.015 43.7431M456 43.7431C450.852 45.6828 446.785 51.2148 443 55C434.949 63.0508 423.738 71.2914 417.742 81C413.305 88.1847 419.339 98.1017 428 95.2932C433.627 93.4686 437.962 88.0362 442 84C450.075 75.9277 460.891 67.8028 466.852 58C471.616 50.1647 465.448 40.1831 456 43.7431M173 199C205.474 199 236.428 207.602 258.714 233C267.909 243.479 273.222 255.09 280 267C322.248 252.707 366.711 266.072 385 310C397.475 303.528 407.82 288.791 414.997 277C438.913 237.707 440.684 186.568 418.691 146C374.441 64.375 255.536 54.272 199.375 129C183.593 149.999 176.26 173.227 173 199z"/>
  <path style="fill:#d9dfb7; stroke:none;" d="M167 199L168 200L167 199z"/>
  <path style="fill:#a3d5f7; stroke:none;" d="M83 338C60.3869 339.785 38.8384 348.147 23.0895 365.001C-13.0725 403.701 -6.17793 469.796 39 498.564C69.5571 518.022 108.415 512 143 512L351 512C386.485 512 424.975 517.448 457 499.127C516.172 465.276 518.968 374.534 462 337.079C448.759 328.373 433.818 322.681 418 321.17C411.202 320.52 395.97 324.354 390.43 320.933C387.537 319.147 387.178 314.159 385.854 311.285C382.272 303.509 378.179 295.606 372.674 289C350.102 261.913 310.992 253.039 279 268C264.743 207.839 183.739 182.982 133 210.309C85.5798 235.849 68.8388 288.097 83 338z"/>
  <path style="fill:#d9dfb7; stroke:none;" d="M174 199L175 200L174 199M188 199L188 200L191 200L188 199z"/>
  <path style="fill:#e6d05c; stroke:none;" d="M191 199L191 200L195 200L191 199z"/>
  <path style="fill:#fdd121; stroke:none;" d="M466.015 199.653C458.426 202.108 457.013 213.327 465.019 216.397C473.115 219.501 498.929 219.529 506.956 216.258C514.466 213.197 512.838 202.557 505.995 199.894C497.446 196.565 474.738 196.831 466.015 199.653z"/>
  <path style="fill:#d9dfb7; stroke:none;" d="M198 200L199 201L198 200z"/>
  <path style="fill:#e6d05c; stroke:none;" d="M199.667 200.333L200.333 200.667L199.667 200.333z"/>
  <path style="fill:#d9dfb7; stroke:none;" d="M203 201L204 202L203 201z"/>
  <path style="fill:#e6d05c; stroke:none;" d="M204.667 201.333L205.333 201.667L204.667 201.333M208.667 202.333L209.333 202.667L208.667 202.333z"/>
  <path style="fill:#d9dfb7; stroke:none;" d="M211 203L212 204L211 203z"/>
  <path style="fill:#e6d05c; stroke:none;" d="M212 203L213 204L212 203z"/>
  <path style="fill:#d9dfb7; stroke:none;" d="M214 204L215 205L214 204z"/>
  <path style="fill:#e6d05c; stroke:none;" d="M215 204L216 205L215 204z"/>
  <path style="fill:#d9dfb7; stroke:none;" d="M217 205L218 206L217 205z"/>
  <path style="fill:#e6d05c; stroke:none;" d="M218 205L219 206L218 205M220 206L221 207L220 206z"/>
  <path style="fill:#d9dfb7; stroke:none;" d="M222 207L223 208L222 207z"/>
  <path style="fill:#e6d05c; stroke:none;" d="M223 207L224 208L223 207M225 208L226 209L225 208M227 209L228 210L227 209M229 210L230 211L229 210M231 211L232 212L231 211z"/>
  <path style="fill:#d9dfb7; stroke:none;" d="M129 212L130 213L129 212M232 212L233 213L232 212z"/>
  <path style="fill:#e6d05c; stroke:none;" d="M233 212L234 213L233 212z"/>
  <path style="fill:#d9dfb7; stroke:none;" d="M234 213L235 214L234 213z"/>
  <path style="fill:#e6d05c; stroke:none;" d="M236 214L237 215L236 214z"/>
  <path style="fill:#d9dfb7; stroke:none;" d="M237 215L238 216L237 215z"/>
  <path style="fill:#e6d05c; stroke:none;" d="M239 216L240 217L239 216z"/>
  <path style="fill:#d9dfb7; stroke:none;" d="M240 217L241 218L240 217z"/>
  <path style="fill:#e6d05c; stroke:none;" d="M242 218L243 219L242 218z"/>
  <path style="fill:#d9dfb7; stroke:none;" d="M243 219L244 220L243 219M117 220L118 221L117 220z"/>
  <path style="fill:#e6d05c; stroke:none;" d="M245 220L246 221L245 220M246 221L247 222L246 221z"/>
  <path style="fill:#d9dfb7; stroke:none;" d="M247 222L248 223L247 222M248 223L249 224L248 223z"/>
  <path style="fill:#e6d05c; stroke:none;" d="M250 224L251 225L250 224z"/>
  <path style="fill:#d9dfb7; stroke:none;" d="M111 225L112 226L111 225z"/>
  <path style="fill:#e6d05c; stroke:none;" d="M251 225L252 226L251 225M252 226L253 227L252 226M253 227L254 228L253 227M254 228L255 229L254 228M255 229L256 230L255 229z"/>
  <path style="fill:#d9dfb7; stroke:none;" d="M106 230L107 231L106 230z"/>
  <path style="fill:#e6d05c; stroke:none;" d="M256 230L257 231L256 230z"/>
  <path style="fill:#d9dfb7; stroke:none;" d="M105 231L106 232L105 231z"/>
  <path style="fill:#e6d05c; stroke:none;" d="M257 231L258 232L257 231M258 232L259 233L258 232M259 233L260 234L259 233z"/>
  <path style="fill:#d9dfb7; stroke:none;" d="M261 236L262 237L261 236M262 237L263 238L262 237z"/>
  <path style="fill:#e6d05c; stroke:none;" d="M263 238L264 239L263 238M264 239L265 240L264 239z"/>
  <path style="fill:#d9dfb7; stroke:none;" d="M265 241L266 242L265 241M96 242L97 243L96 242z"/>
  <path style="fill:#e6d05c; stroke:none;" d="M266 242L267 243L266 242z"/>
  <path style="fill:#d9dfb7; stroke:none;" d="M267 244L268 245L267 244z"/>
  <path style="fill:#e6d05c; stroke:none;" d="M268 245L269 246L268 245z"/>
  <path style="fill:#d9dfb7; stroke:none;" d="M269 247L270 248L269 247z"/>
  <path style="fill:#e6d05c; stroke:none;" d="M270 248L271 249L270 248z"/>
  <path style="fill:#d9dfb7; stroke:none;" d="M271 250L272 251L271 250M272 252L273 253L272 252z"/>
  <path style="fill:#e6d05c; stroke:none;" d="M273 253L274 254L273 253z"/>
  <path style="fill:#d9dfb7; stroke:none;" d="M273 254L274 255L273 254z"/>
  <path style="fill:#e6d05c; stroke:none;" d="M274 255L275 256L274 255M275 257L276 258L275 257M276 259L277 260L276 259z"/>
  <path style="fill:#d9dfb7; stroke:none;" d="M276 260L277 261L276 260z"/>
  <path style="fill:#e6d05c; stroke:none;" d="M304 260L304 261L309 261L304 260z"/>
  <path style="fill:#d9dfb7; stroke:none;" d="M309 260L309 261L316 261L309 260z"/>
  <path style="fill:#e6d05c; stroke:none;" d="M316 260L316 261L321 261L316 260M297 261L297 262L300 262L297 261z"/>
  <path style="fill:#d9dfb7; stroke:none;" d="M300 261L301 262L300 261M324 261L325 262L324 261z"/>
  <path style="fill:#e6d05c; stroke:none;" d="M325.667 261.333L326.333 261.667L325.667 261.333M277 262L278 263L277 262M293 262L294 263L293 262z"/>
  <path style="fill:#d9dfb7; stroke:none;" d="M294 262L295 263L294 262M329 262L330 263L329 262z"/>
  <path style="fill:#e6d05c; stroke:none;" d="M330.667 262.333L331.333 262.667L330.667 262.333M289.667 263.333L290.333 263.667L289.667 263.333z"/>
  <path style="fill:#d9dfb7; stroke:none;" d="M291 263L292 264L291 263M333 263L334 264L333 263z"/>
  <path style="fill:#e6d05c; stroke:none;" d="M334 263L335 264L334 263M278 264L279 265L278 264M286 264L287 265L286 264z"/>
  <path style="fill:#d9dfb7; stroke:none;" d="M287 264L288 265L287 264M336 264L337 265L336 264z"/>
  <path style="fill:#e6d05c; stroke:none;" d="M337 264L338 265L337 264z"/>
  <path style="fill:#d9dfb7; stroke:none;" d="M278 265L279 266L278 265z"/>
  <path style="fill:#e6d05c; stroke:none;" d="M284 265L285 266L284 265M340 265L341 266L340 265M279 266L280 267L279 266M281 266L282 267L281 266z"/>
  <path style="fill:#d9dfb7; stroke:none;" d="M282 266L283 267L282 266z"/>
  <path style="fill:#e6d05c; stroke:none;" d="M342 266L343 267L342 266z"/>
  <path style="fill:#d9dfb7; stroke:none;" d="M279 267L280 268L279 267M344 267L345 268L344 267z"/>
  <path style="fill:#e6d05c; stroke:none;" d="M345 267L346 268L345 267z"/>
  <path style="fill:#d9dfb7; stroke:none;" d="M346 268L347 269L346 268z"/>
  <path style="fill:#e6d05c; stroke:none;" d="M347 268L348 269L347 268z"/>
  <path style="fill:#d9dfb7; stroke:none;" d="M348 269L349 270L348 269z"/>
  <path style="fill:#e6d05c; stroke:none;" d="M349 269L350 270L349 269z"/>
  <path style="fill:#d9dfb7; stroke:none;" d="M350 270L351 271L350 270z"/>
  <path style="fill:#e6d05c; stroke:none;" d="M352 271L353 272L352 271M354 272L355 273L354 272z"/>
  <path style="fill:#d9dfb7; stroke:none;" d="M355 273L356 274L355 273z"/>
  <path style="fill:#e6d05c; stroke:none;" d="M357 274L358 275L357 274M358 275L359 276L358 275z"/>
  <path style="fill:#d9dfb7; stroke:none;" d="M359 276L360 277L359 276z"/>
  <path style="fill:#e6d05c; stroke:none;" d="M361 277L362 278L361 277M362 278L363 279L362 278M363 279L364 280L363 279z"/>
  <path style="fill:#d9dfb7; stroke:none;" d="M364 280L365 281L364 280M365 281L366 282L365 281M366 282L367 283L366 282M367 283L368 284L367 283M368 284L369 285L368 284M369 285L370 286L369 285z"/>
  <path style="fill:#e6d05c; stroke:none;" d="M370 286L371 287L370 286M371 287L372 288L371 287M372 288L373 289L372 288z"/>
  <path style="fill:#d9dfb7; stroke:none;" d="M374 291L375 292L374 291z"/>
  <path style="fill:#e6d05c; stroke:none;" d="M375 292L376 293L375 292z"/>
  <path style="fill:#d9dfb7; stroke:none;" d="M376 294L377 295L376 294z"/>
  <path style="fill:#e6d05c; stroke:none;" d="M377 295L378 296L377 295z"/>
  <path style="fill:#d9dfb7; stroke:none;" d="M378 297L379 298L378 297z"/>
  <path style="fill:#e6d05c; stroke:none;" d="M379 298L380 299L379 298M380 300L381 301L380 300M381 302L382 303L381 302z"/>
  <path style="fill:#d9dfb7; stroke:none;" d="M382 304L383 305L382 304M383 306L384 307L383 306z"/>
  <path style="fill:#e6d05c; stroke:none;" d="M384 308L385 309L384 308z"/>
  <path style="fill:#d9dfb7; stroke:none;" d="M384 309L385 310L384 309M420 321L421 322L420 321M457 334L458 335L457 334M78 338L79 339L78 338M9 384L10 385L9 384M498 385L499 386L498 385M499 388L500 389L499 388M0 412L1 413L0 412M503 413L504 414L503 413z"/>
  <path style="fill:none; stroke:none;" d="M0 438L0 512L74 512L74 511C47.1652 509.83 21.0798 488.005 9.25926 465C4.80354 456.328 3.87182 446.622 0 438z"/>
  <path style="fill:#d9dfb7; stroke:none;" d="M3 451L4 452L3 451M11 469L12 470L11 469M474 485L475 486L474 485M24 486L25 487L24 486M427 510L428 511L427 510z"/>
</svg>
